<svg fill="none" viewBox="0 0 80 80" height="80" width="80" xmlns="http://www.w3.org/2000/svg">
                                            <g clip-path="url(#clip0_52_12)">
                                            <path fill="#5FD522" d="M79.1317 38.2714L74.2852 33.7758C73.9547 33.4694 73.7013 33.0893 73.5455 32.6664L69.7394 22.3313C69.1951 20.8747 68.2198 19.6187 66.9435 18.7305C65.6672 17.8423 64.1506 17.3642 62.5956 17.3599H56.8289V15.7421C56.8289 15.0463 56.5525 14.3791 56.0606 13.8871C55.5686 13.3952 54.9014 13.1188 54.2056 13.1188H19.3545C18.836 13.1127 18.3355 13.3091 17.9595 13.6662C17.5834 14.0233 17.3615 14.513 17.3408 15.0311C17.336 15.2902 17.3828 15.5475 17.4786 15.7883C17.5743 16.029 17.7171 16.2482 17.8986 16.4331C18.0801 16.618 18.2966 16.7649 18.5354 16.8651C18.7743 16.9654 19.0308 17.0171 19.2899 17.0171H52.9305V33.9307C52.9305 34.6264 53.2069 35.2936 53.6988 35.7856C54.1908 36.2776 54.858 36.5539 55.5538 36.5539H71.3963L76.1014 40.7883V56.5838H71.8358C71.411 54.7251 70.3678 53.0656 68.877 51.877C67.3862 50.6885 65.536 50.0412 63.6294 50.0412C61.7228 50.0412 59.8726 50.6885 58.3818 51.877C56.8909 53.0656 55.8478 54.7251 55.423 56.5838H42.2969C41.8721 54.7251 40.8289 53.0656 39.3381 51.877C37.8473 50.6885 35.9971 50.0412 34.0905 50.0412C32.1838 50.0412 30.3337 50.6885 28.8429 51.877C27.352 53.0656 26.3088 54.7251 25.8841 56.5838H19.3544C18.8358 56.5777 18.3352 56.7741 17.9592 57.1313C17.5832 57.4886 17.3613 57.9784 17.3408 58.4966C17.336 58.7556 17.3828 59.013 17.4786 59.2537C17.5743 59.4944 17.7171 59.7136 17.8986 59.8985C18.0801 60.0834 18.2966 60.2303 18.5355 60.3305C18.7743 60.4308 19.0308 60.4824 19.2899 60.4824H25.9169C26.3684 62.3088 27.4186 63.9313 28.9 65.0911C30.3814 66.2509 32.2086 66.8811 34.0899 66.8811C35.9713 66.8811 37.7985 66.2509 39.2799 65.0911C40.7613 63.9313 41.8115 62.3088 42.263 60.4824H55.4561C55.9076 62.3088 56.9578 63.9313 58.4392 65.0911C59.9206 66.2509 61.7478 66.8811 63.6292 66.8811C65.5105 66.8811 67.3377 66.2509 68.8191 65.0911C70.3005 63.9313 71.3507 62.3088 71.8022 60.4824H77.3767C78.0724 60.4824 78.7397 60.206 79.2316 59.7141C79.7236 59.2222 80 58.555 80 57.8593V40.2211C79.9997 39.8535 79.9223 39.49 79.7727 39.1542C79.6232 38.8183 79.4048 38.5176 79.1317 38.2714ZM56.8289 32.6561V21.258H62.5956C63.3548 21.2601 64.0954 21.4935 64.7185 21.9272C65.3417 22.3609 65.8179 22.9742 66.0836 23.6854L69.4063 32.6561H56.8289ZM34.09 62.9822C33.1958 62.9822 32.3216 62.717 31.578 62.2202C30.8345 61.7234 30.255 61.0172 29.9128 60.1911C29.5706 59.3649 29.481 58.4558 29.6555 57.5787C29.83 56.7016 30.2606 55.896 30.8929 55.2637C31.5253 54.6313 32.3309 54.2007 33.208 54.0263C34.0851 53.8518 34.9942 53.9414 35.8204 54.2836C36.6466 54.6259 37.3527 55.2054 37.8495 55.949C38.3463 56.6925 38.6115 57.5667 38.6114 58.461C38.6101 59.6597 38.1332 60.8089 37.2856 61.6565C36.438 62.5041 35.2887 62.9809 34.09 62.9822ZM63.6292 62.9822C62.735 62.9823 61.8608 62.7171 61.1172 62.2203C60.3736 61.7235 59.7941 61.0173 59.4519 60.1912C59.1096 59.365 59.0201 58.4559 59.1945 57.5788C59.369 56.7017 59.7996 55.896 60.432 55.2637C61.0643 54.6314 61.8699 54.2007 62.747 54.0263C63.6241 53.8518 64.5332 53.9414 65.3594 54.2836C66.1856 54.6259 66.8917 55.2054 67.3886 55.949C67.8854 56.6925 68.1505 57.5667 68.1505 58.461C68.1491 59.6597 67.6723 60.8089 66.8247 61.6565C65.9771 62.5041 64.8279 62.9809 63.6292 62.9822Z"></path>
                                            <path fill="#5FD522" d="M10.9661 27.9219H33.0714C33.5884 27.9219 34.0842 27.7166 34.4498 27.351C34.8154 26.9854 35.0208 26.4896 35.0208 25.9726C35.0208 25.4556 34.8154 24.9597 34.4498 24.5942C34.0842 24.2286 33.5884 24.0232 33.0714 24.0232H10.9661C10.4491 24.0232 9.95326 24.2286 9.58768 24.5942C9.2221 24.9597 9.01672 25.4556 9.01672 25.9726C9.01672 26.4896 9.2221 26.9854 9.58768 27.351C9.95326 27.7166 10.4491 27.9219 10.9661 27.9219Z"></path>
                                            <path fill="#5FD522" d="M35.0208 36.8008C35.0208 36.2838 34.8154 35.7879 34.4498 35.4224C34.0842 35.0568 33.5884 34.8514 33.0714 34.8514H1.94937C1.69192 34.8491 1.43656 34.8978 1.19804 34.9947C0.959513 35.0917 0.742555 35.2349 0.559687 35.4161C0.376819 35.5974 0.231665 35.813 0.132605 36.0507C0.0335461 36.2883 -0.0174561 36.5432 -0.0174561 36.8007C-0.0174561 37.0582 0.0335461 37.3131 0.132605 37.5507C0.231665 37.7884 0.376819 38.004 0.559687 38.1853C0.742555 38.3665 0.959513 38.5097 1.19804 38.6067C1.43656 38.7036 1.69192 38.7523 1.94937 38.75H33.0714C33.5884 38.75 34.0842 38.5446 34.4498 38.1791C34.8153 37.8135 35.0207 37.3178 35.0208 36.8008Z"></path>
                                            <path fill="#5FD522" d="M22.6778 47.6291C22.6778 47.3732 22.6274 47.1197 22.5294 46.8832C22.4315 46.6467 22.2879 46.4318 22.1069 46.2508C21.9259 46.0698 21.711 45.9263 21.4745 45.8283C21.238 45.7303 20.9845 45.6799 20.7286 45.6799H7.17997C6.66601 45.6845 6.17466 45.8919 5.81285 46.257C5.45104 46.6221 5.24805 47.1152 5.24805 47.6292C5.24805 48.1432 5.45104 48.6364 5.81285 49.0015C6.17466 49.3665 6.66601 49.5739 7.17997 49.5785H20.7286C21.2455 49.5785 21.7413 49.3731 22.1069 49.0075C22.4724 48.6419 22.6778 48.1461 22.6778 47.6291Z"></path>
                                            </g>
                                            <defs>
                                            <clipPath id="clip0_52_12">
                                            <rect fill="white" height="80" width="80"></rect>
                                            </clipPath>
                                            </defs>
                                            </svg>