<svg fill="none" viewBox="0 0 80 80" height="80" width="80" xmlns="http://www.w3.org/2000/svg">
                                            <path fill="#5FD522" d="M35.815 49.1985C37.4523 50.2696 38.5956 50.6255 40.0053 50.7319V51.9157C40.0053 52.7804 40.7062 53.4813 41.5709 53.4813C42.4356 53.4813 43.1366 52.7804 43.1366 51.9157V50.5875C45.9669 49.9171 47.783 47.5211 48.1803 45.158C48.692 42.114 47.1016 39.468 44.1283 38.4171C42.3736 37.7968 40.4302 37.0454 39.3191 36.1738C38.8769 35.8269 38.685 35.1046 38.8303 34.3333C38.9723 33.5799 39.4839 32.6663 40.4941 32.3621C42.7887 31.6711 44.6913 33.36 44.7847 33.445C45.4163 34.0294 46.4017 33.9951 46.9908 33.3663C47.5819 32.7352 47.5494 31.7444 46.9183 31.1535C46.8288 31.0696 45.3477 29.711 43.1366 29.2311V28.0844C43.1366 27.2197 42.4356 26.5188 41.5709 26.5188C40.7062 26.5188 40.0053 27.2197 40.0053 28.0844V29.2535C39.8681 29.286 39.7302 29.3221 39.5908 29.3641C37.6222 29.9572 36.1517 31.6391 35.7533 33.7536C35.3884 35.6899 36.0142 37.5613 37.3866 38.6377C38.5694 39.5654 40.2202 40.3568 43.0847 41.3693C45.3247 42.1611 45.1877 44.0721 45.0925 44.6391C44.8509 46.0757 43.6428 47.628 41.5608 47.6419C39.6592 47.6541 39.0167 47.5519 37.5292 46.5786C36.8058 46.1055 35.8355 46.3083 35.362 47.0316C34.8887 47.7549 35.0916 48.7251 35.815 49.1985Z"></path>
                                            <path fill="#5FD522" d="M41.6888 60.9336C53.2316 60.9336 62.6223 51.5428 62.6223 40C62.6223 28.4572 53.2316 19.0664 41.6888 19.0664C30.1459 19.0664 20.755 28.4572 20.755 40C20.755 51.5428 30.1459 60.9336 41.6888 60.9336ZM41.6888 22.1975C51.505 22.1975 59.4913 30.1838 59.4913 40C59.4913 49.8163 51.505 57.8025 41.6888 57.8025C31.8724 57.8025 23.8863 49.8163 23.8863 40C23.8863 30.1838 31.8724 22.1975 41.6888 22.1975Z"></path>
                                            <path fill="#5FD522" d="M69.1619 13.2595C68.5609 12.6378 67.5698 12.6206 66.9481 13.2217C66.3264 13.8225 66.3094 14.8136 66.9103 15.4354C73.3377 22.0865 76.8745 30.8183 76.8689 40.022C76.857 59.5234 60.9817 75.3889 41.4802 75.3889C33.3105 75.3889 25.3344 72.5265 19.0214 67.329C18.4461 66.8554 18.1158 66.1533 18.115 65.4025C18.1142 64.6386 18.4511 63.9215 19.0392 63.4351C19.9713 62.6645 21.3392 62.672 22.2922 63.4531C27.6908 67.8776 34.5052 70.3142 41.4802 70.3142C49.5794 70.3142 57.198 67.1483 62.9327 61.3995C68.667 55.6509 71.8141 48.0244 71.7941 39.9244C71.7531 23.3045 58.1991 9.73998 41.5799 9.68607C33.4822 9.65639 25.8624 12.7964 20.1109 18.5176C14.3619 24.2367 11.1852 31.8403 11.1661 39.9278C11.1652 40.3436 11.3295 40.7428 11.6233 41.0372C11.917 41.3315 12.3158 41.497 12.7316 41.497H13.2111L8.74408 49.234L4.27704 41.497H4.52564C5.38908 41.497 6.08954 40.7978 6.09126 39.9344C6.12689 20.457 22.0022 4.61123 41.4799 4.61107C46.5224 4.61107 51.398 5.65873 55.9714 7.72498C56.7595 8.08076 57.6867 7.73076 58.0427 6.94279C58.3986 6.15482 58.0485 5.22748 57.2605 4.87154C52.2792 2.62107 46.9699 1.47998 41.4799 1.47998C20.8017 1.47998 3.85361 17.8861 2.99423 38.3659H1.56564C1.00626 38.3659 0.489545 38.6644 0.209857 39.1487C-0.0698303 39.6331 -0.0698303 40.2298 0.209857 40.7144L6.03267 50.7997C6.59861 51.78 7.61236 52.3653 8.74439 52.3653C9.87626 52.3653 10.89 51.78 11.4559 50.7997L17.2788 40.7144C17.5584 40.23 17.5584 39.6333 17.2788 39.1487C16.9991 38.6644 16.4824 38.3659 15.923 38.3659H14.3453C14.7392 31.7047 17.5367 25.4948 22.3191 20.7373C27.4559 15.6273 34.2566 12.817 41.4795 12.817C41.5092 12.817 41.54 12.817 41.5697 12.8172C56.4722 12.8654 68.6263 25.0289 68.663 39.9317C68.6808 47.1939 65.8586 54.0326 60.7158 59.1879C55.573 64.3436 48.7416 67.1829 41.48 67.1829C35.2267 67.1829 29.117 64.9983 24.2767 61.0312C22.1686 59.3036 19.1267 59.2997 17.0438 61.0219C15.7328 62.1059 14.9819 63.7036 14.9838 65.4056C14.9855 67.0944 15.7317 68.6764 17.0311 69.7462C23.9033 75.404 32.5861 78.52 41.48 78.52C62.707 78.52 79.987 61.2508 79.9998 40.0239C80.0061 30.0031 76.157 20.4979 69.1619 13.2595Z"></path>
                                            <path fill="#5FD522" d="M62.8941 11.3335C63.7527 11.2429 64.3753 10.4734 64.2847 9.61475C64.1941 8.75612 63.4246 8.13351 62.5659 8.22412C61.7073 8.31473 61.0847 9.08424 61.1753 9.94287C61.2659 10.8015 62.0354 11.4241 62.8941 11.3335Z"></path>
                                            </svg>