<svg fill="none" viewBox="0 0 80 80" height="80" width="80" xmlns="http://www.w3.org/2000/svg">
                                            <path fill="#5FD522" d="M35.7894 29.3256C38.1708 29.3256 40.1082 31.0191 40.1082 33.1006C40.1082 33.9632 40.8075 34.6626 41.6702 34.6626C42.5329 34.6626 43.2322 33.9632 43.2322 33.1006C43.2322 29.7931 40.7078 27.0229 37.3514 26.3558V25.239C37.3514 24.3765 36.6521 23.677 35.7894 23.677C34.9267 23.677 34.2274 24.3765 34.2274 25.239V26.3558C30.871 27.0231 28.3467 29.7931 28.3467 33.1006C28.3467 36.9047 31.6855 39.9998 35.7894 39.9998C38.1708 39.9998 40.1082 41.6933 40.1082 43.775C40.1082 45.8565 38.1708 47.55 35.7894 47.55C33.408 47.55 31.4707 45.8565 31.4707 43.775C31.4707 42.9125 30.7714 42.213 29.9087 42.213C29.046 42.213 28.3467 42.9125 28.3467 43.775C28.3467 47.0825 30.8712 49.8527 34.2274 50.5198V51.6366C34.2274 52.4992 34.9267 53.1986 35.7894 53.1986C36.6521 53.1986 37.3514 52.4992 37.3514 51.6366V50.5198C40.7078 49.8527 43.2322 47.0825 43.2322 43.775C43.2322 39.9709 39.8934 36.8758 35.7894 36.8758C33.408 36.8758 31.4707 35.1823 31.4707 33.1006C31.4707 31.0191 33.408 29.3256 35.7894 29.3256Z"></path>
                                            <path fill="#5FD522" d="M80 16.7262C80 7.5105 72.5024 0.0129395 63.2867 0.0129395C58.5546 0.0129395 54.276 1.99011 51.2325 5.16111L36.3513 0.0963498C36.0254 -0.0145516 35.6724 -0.0147078 35.3468 0.095725L1.06075 11.7119C0.42658 11.9267 0 12.5217 0 13.1911V31.3149C0 40.0446 2.25302 48.6794 6.51538 56.2863C6.80169 56.7972 7.33245 57.085 7.87946 57.085C8.13797 57.085 8.40007 57.0206 8.64156 56.8853C9.39412 56.4638 9.66232 55.5117 9.24058 54.7592C5.23907 47.618 3.12398 39.511 3.12398 31.3151V14.3111L35.8467 3.22439L49.1851 7.76432C48.1543 9.38067 47.3942 11.1852 46.9677 13.1138L36.4027 9.06343C36.0436 8.9255 35.6463 8.92535 35.2868 9.06233L9.75244 18.8018C9.14717 19.0328 8.74715 19.6136 8.74715 20.2613V31.3151C8.74715 39.8265 11.2523 48.0329 15.9918 55.0472C20.7115 62.0321 27.3481 67.3994 35.184 70.5687C35.3719 70.6446 35.5707 70.6826 35.7697 70.6826C35.9687 70.6826 36.1676 70.6446 36.3555 70.5687C51.72 64.3543 61.9306 49.8951 62.7398 33.4297C62.9217 33.4356 63.1038 33.4395 63.2869 33.4395C65.0678 33.4395 66.7843 33.1584 68.3952 32.6401C67.8487 52.7581 54.8985 70.3306 35.7699 76.7793C28.9345 74.4721 22.6212 70.5966 17.4855 65.55C16.8703 64.9455 15.8812 64.954 15.2766 65.5694C14.6719 66.1846 14.6807 67.1737 15.2959 67.7784C20.8954 73.2806 27.808 77.4758 35.2861 79.9102C35.4433 79.9613 35.6065 79.9869 35.7697 79.9869C35.933 79.9869 36.096 79.9613 36.2532 79.9102C46.5781 76.5491 55.4076 70.1285 61.7873 61.3425C68.167 52.5563 71.5392 42.1729 71.5392 31.3151V31.2557C76.5881 28.3767 80 22.9427 80 16.7262ZM35.7696 67.4303C21.2298 61.28 11.8711 47.1737 11.8711 31.3151V21.3374L35.8421 12.1943L46.5786 16.3103C46.5751 16.4485 46.5732 16.5872 46.5732 16.7262C46.5732 24.6861 52.167 31.3633 59.6298 33.0355C58.977 48.1751 49.7467 61.5168 35.7696 67.4303ZM63.2867 30.3156C55.7935 30.3156 49.6974 24.2194 49.6974 16.7262C49.6974 9.23306 55.7935 3.13692 63.2867 3.13692C70.7799 3.13692 76.876 9.23306 76.876 16.7262C76.876 24.2194 70.7799 30.3156 63.2867 30.3156Z"></path>
                                            <path fill="#5FD522" d="M66.6337 12.9664L62.4275 17.1727L61.0849 15.83C60.4748 15.2203 59.4859 15.2202 58.876 15.83C58.266 16.4399 58.2658 17.429 58.876 18.0391L61.3231 20.4863C61.616 20.7791 62.0134 20.9438 62.4276 20.9438C62.8418 20.9438 63.2392 20.7791 63.5321 20.4863L68.8429 15.1755C69.4528 14.5655 69.4528 13.5765 68.8429 12.9664C68.2329 12.3566 67.2437 12.3566 66.6337 12.9664Z"></path>
                                            <path fill="#5FD522" d="M11.7415 59.8325C11.3307 59.8325 10.9277 59.9997 10.6372 60.2902C10.3466 60.5823 10.1795 60.9837 10.1795 61.3945C10.1795 61.8069 10.3466 62.2083 10.6372 62.4988C10.9277 62.7909 11.3307 62.9579 11.7415 62.9579C12.1523 62.9579 12.5553 62.7909 12.8458 62.4988C13.1363 62.2083 13.3035 61.8067 13.3035 61.3945C13.3035 60.9837 13.1363 60.5823 12.8458 60.2902C12.5553 59.9997 12.1523 59.8325 11.7415 59.8325Z"></path>
                                            </svg>