<svg fill="none" viewBox="0 0 80 80" height="80" width="80" xmlns="http://www.w3.org/2000/svg">
                                            <g clip-path="url(#clip0_52_2)">
                                            <path fill="#5FD522" d="M40 0C18.7653 0 0 17.1545 0 39.0625V55C0 61.0309 4.90662 65.9375 10.9375 65.9375H17.1875C19.7723 65.9375 21.875 63.8348 21.875 61.25V35.9375C21.875 33.3527 19.7723 31.25 17.1875 31.25C17.1875 31.25 10.5951 31.2555 10.4248 31.2634C13.3209 20.9418 22.2736 12.5848 33.3514 10.1111C34.1937 9.9231 34.7241 9.08813 34.5361 8.24585C34.3475 7.40356 33.5132 6.87317 32.6703 7.06116C19.9329 9.90601 9.73999 19.8541 7.02454 31.9727C5.69092 32.4841 4.49402 33.2471 3.48145 34.1962C6.00464 16.9183 21.701 3.125 40 3.125C58.2983 3.125 73.9954 16.9183 76.5186 34.1962C75.506 33.2465 74.3091 32.4835 72.9755 31.9727C70.26 19.8535 60.0671 9.9054 47.3297 7.06116C46.488 6.87256 45.6525 7.40356 45.4645 8.24585C45.2765 9.08813 45.8063 9.9231 46.6486 10.1111C57.7264 12.5848 66.6791 20.9418 69.5758 31.2634C69.4049 31.2555 69.234 31.25 69.0625 31.25H62.8125C60.2277 31.25 58.125 33.3527 58.125 35.9375V61.25C58.125 63.8348 60.2277 65.9375 62.8125 65.9375H67.5V69.0625C67.5 70.7855 66.098 72.1875 64.375 72.1875H46.0522C45.3564 69.4946 42.9071 67.5 40 67.5C36.554 67.5 33.75 70.304 33.75 73.75C33.75 77.196 36.554 80 40 80C42.9071 80 45.3564 78.0054 46.0522 75.3125H64.375C67.821 75.3125 70.625 72.5085 70.625 69.0625V65.824C75.9186 65.0635 80 60.5005 80 55V39.0625C80 17.3376 61.4423 0 40 0ZM18.75 35.9375V61.25C18.75 62.1118 18.0493 62.8125 17.1875 62.8125H12.5V34.375H17.1875C18.0493 34.375 18.75 35.0757 18.75 35.9375ZM9.375 34.5319V62.655C5.81299 61.9293 3.125 58.7726 3.125 55V42.1875C3.125 38.5187 5.72327 35.2728 9.375 34.5319ZM40 76.875C38.277 76.875 36.875 75.473 36.875 73.75C36.875 72.027 38.277 70.625 40 70.625C41.723 70.625 43.125 72.027 43.125 73.75C43.125 75.473 41.723 76.875 40 76.875ZM61.25 61.25V35.9375C61.25 35.0757 61.9507 34.375 62.8125 34.375H67.5V62.8125H62.8125C61.9507 62.8125 61.25 62.1118 61.25 61.25ZM70.625 62.655V34.5319C74.2932 35.2771 76.875 38.5339 76.875 42.1875V55C76.875 58.7726 74.187 61.9293 70.625 62.655Z"></path>
                                            <path fill="#5FD522" d="M41.5625 7.8125C41.5625 8.67554 40.863 9.375 40 9.375C39.137 9.375 38.4375 8.67554 38.4375 7.8125C38.4375 6.94946 39.137 6.25 40 6.25C40.863 6.25 41.5625 6.94946 41.5625 7.8125Z"></path>
                                            </g>
                                            <defs>
                                            <clipPath id="clip0_52_2">
                                            <rect fill="white" height="80" width="80"></rect>
                                            </clipPath>
                                            </defs>
                                            </svg>